<?xml version="1.0" encoding="UTF-8" standalone="no"?>
<!DOCTYPE svg PUBLIC "-//W3C//DTD SVG 1.1//EN"
 "http://www.w3.org/Graphics/SVG/1.1/DTD/svg11.dtd">
<!-- Generated by graphviz version 2.40.1 (20161225.0304)
 -->
<!-- Title: dependencies Pages: 1 -->
<svg width="1210pt" height="284pt"
 viewBox="0.00 0.00 1210.00 284.00" xmlns="http://www.w3.org/2000/svg" xmlns:xlink="http://www.w3.org/1999/xlink">
<g id="graph0" class="graph" transform="scale(1 1) rotate(0) translate(4 280)">
<title>dependencies</title>
<polygon fill="#ffffff" stroke="transparent" points="-4,4 -4,-280 1206,-280 1206,4 -4,4"/>
<text text-anchor="start" x="580.0091" y="-42.4" font-family="sans-serif" font-weight="bold" font-size="14.00" fill="#000000">Legend</text>
<polygon fill="#ffffb3" stroke="transparent" points="367,-10 367,-30 387,-30 387,-10 367,-10"/>
<text text-anchor="start" x="390.629" y="-15.4" font-family="sans-serif" font-size="14.00" fill="#000000"> &#160;Declarations</text>
<polygon fill="#8dd3c7" stroke="transparent" points="480,-10 480,-30 500,-30 500,-10 480,-10"/>
<text text-anchor="start" x="503.7251" y="-15.4" font-family="sans-serif" font-size="14.00" fill="#000000"> &#160;Module</text>
<polygon fill="#80b1d3" stroke="transparent" points="566,-10 566,-30 586,-30 586,-10 566,-10"/>
<text text-anchor="start" x="589.7812" y="-15.4" font-family="sans-serif" font-size="14.00" fill="#000000"> &#160;Bootstrap</text>
<polygon fill="#fdb462" stroke="transparent" points="663,-10 663,-30 683,-30 683,-10 663,-10"/>
<text text-anchor="start" x="686.6732" y="-15.4" font-family="sans-serif" font-size="14.00" fill="#000000"> &#160;Providers</text>
<polygon fill="#fb8072" stroke="transparent" points="759,-10 759,-30 779,-30 779,-10 759,-10"/>
<text text-anchor="start" x="782.7258" y="-15.4" font-family="sans-serif" font-size="14.00" fill="#000000"> &#160;Exports</text>
<g id="clust1" class="cluster">
<title>cluster_SharedModule</title>
<polygon fill="none" stroke="#000000" stroke-dasharray="1,5" points="8,-70 8,-268 1194,-268 1194,-70 8,-70"/>
</g>
<g id="clust3" class="cluster">
<title>cluster_SharedModule_imports</title>
<polygon fill="none" stroke="#000000" points="488,-78 488,-130 1186,-130 1186,-78 488,-78"/>
</g>
<g id="clust4" class="cluster">
<title>cluster_SharedModule_exports</title>
<polygon fill="none" stroke="#000000" points="453,-208 453,-260 1056,-260 1056,-208 453,-208"/>
</g>
<g id="clust6" class="cluster">
<title>cluster_SharedModule_providers</title>
<polygon fill="none" stroke="#000000" points="16,-78 16,-130 480,-130 480,-78 16,-78"/>
</g>
<!-- CommonModule -->
<g id="node1" class="node">
<title>CommonModule</title>
<polygon fill="#8dd3c7" stroke="#000000" points="1177.6681,-122 1174.6681,-126 1153.6681,-126 1150.6681,-122 1066.3319,-122 1066.3319,-86 1177.6681,-86 1177.6681,-122"/>
<text text-anchor="middle" x="1122" y="-99.8" font-family="Times,serif" font-size="14.00" fill="#000000">CommonModule</text>
</g>
<!-- SharedModule -->
<g id="node6" class="node">
<title>SharedModule</title>
<polygon fill="#8dd3c7" stroke="#000000" points="780.4231,-187 777.4231,-191 756.4231,-191 753.4231,-187 681.5769,-187 681.5769,-151 780.4231,-151 780.4231,-187"/>
<text text-anchor="middle" x="731" y="-164.8" font-family="Times,serif" font-size="14.00" fill="#000000">SharedModule</text>
</g>
<!-- CommonModule&#45;&gt;SharedModule -->
<g id="edge1" class="edge">
<title>CommonModule&#45;&gt;SharedModule</title>
<path fill="none" stroke="#000000" d="M1122,-122.1061C1122,-141.3391 1122,-169 1122,-169 1122,-169 790.5204,-169 790.5204,-169"/>
<polygon fill="#000000" stroke="#000000" points="790.5205,-165.5001 780.5204,-169 790.5204,-172.5001 790.5205,-165.5001"/>
</g>
<!-- BrowserModule -->
<g id="node2" class="node">
<title>BrowserModule</title>
<polygon fill="#8dd3c7" stroke="#000000" points="1048.4734,-122 1045.4734,-126 1024.4734,-126 1021.4734,-122 941.5266,-122 941.5266,-86 1048.4734,-86 1048.4734,-122"/>
<text text-anchor="middle" x="995" y="-99.8" font-family="Times,serif" font-size="14.00" fill="#000000">BrowserModule</text>
</g>
<!-- BrowserModule&#45;&gt;SharedModule -->
<g id="edge2" class="edge">
<title>BrowserModule&#45;&gt;SharedModule</title>
<path fill="none" stroke="#000000" d="M994.5486,-122.0225C994.5486,-139.3734 994.5486,-163 994.5486,-163 994.5486,-163 790.2623,-163 790.2623,-163"/>
<polygon fill="#000000" stroke="#000000" points="790.2623,-159.5001 780.2623,-163 790.2623,-166.5001 790.2623,-159.5001"/>
</g>
<!-- MaterialModule -->
<g id="node3" class="node">
<title>MaterialModule</title>
<polygon fill="#8dd3c7" stroke="#000000" points="923.4706,-122 920.4706,-126 899.4706,-126 896.4706,-122 816.5294,-122 816.5294,-86 923.4706,-86 923.4706,-122"/>
<text text-anchor="middle" x="870" y="-99.8" font-family="Times,serif" font-size="14.00" fill="#000000">MaterialModule</text>
</g>
<!-- MaterialModule&#45;&gt;SharedModule -->
<g id="edge3" class="edge">
<title>MaterialModule&#45;&gt;SharedModule</title>
<path fill="none" stroke="#000000" d="M865.3757,-122.2396C865.3757,-137.5706 865.3757,-157 865.3757,-157 865.3757,-157 790.2735,-157 790.2735,-157"/>
<polygon fill="#000000" stroke="#000000" points="790.2736,-153.5001 780.2735,-157 790.2735,-160.5001 790.2736,-153.5001"/>
</g>
<!-- IgoModule.forRoot() -->
<g id="node4" class="node">
<title>IgoModule.forRoot()</title>
<polygon fill="#8dd3c7" stroke="#000000" points="798.0807,-122 795.0807,-126 774.0807,-126 771.0807,-122 663.9193,-122 663.9193,-86 798.0807,-86 798.0807,-122"/>
<text text-anchor="middle" x="731" y="-99.8" font-family="Times,serif" font-size="14.00" fill="#000000">IgoModule.forRoot()</text>
</g>
<!-- IgoModule.forRoot()&#45;&gt;SharedModule -->
<g id="edge4" class="edge">
<title>IgoModule.forRoot()&#45;&gt;SharedModule</title>
<path fill="none" stroke="#000000" d="M731,-122.1061C731,-122.1061 731,-140.991 731,-140.991"/>
<polygon fill="#000000" stroke="#000000" points="727.5001,-140.9909 731,-150.991 734.5001,-140.991 727.5001,-140.9909"/>
</g>
<!-- CauseModule.forRoot() -->
<g id="node5" class="node">
<title>CauseModule.forRoot()</title>
<polygon fill="#8dd3c7" stroke="#000000" points="646.1299,-122 643.1299,-126 622.1299,-126 619.1299,-122 495.8701,-122 495.8701,-86 646.1299,-86 646.1299,-122"/>
<text text-anchor="middle" x="571" y="-99.8" font-family="Times,serif" font-size="14.00" fill="#000000">CauseModule.forRoot()</text>
</g>
<!-- CauseModule.forRoot()&#45;&gt;SharedModule -->
<g id="edge5" class="edge">
<title>CauseModule.forRoot()&#45;&gt;SharedModule</title>
<path fill="none" stroke="#000000" d="M611.1048,-122.2396C611.1048,-137.5706 611.1048,-157 611.1048,-157 611.1048,-157 671.5418,-157 671.5418,-157"/>
<polygon fill="#000000" stroke="#000000" points="671.5419,-160.5001 681.5418,-157 671.5418,-153.5001 671.5419,-160.5001"/>
</g>
<!-- CommonModule  -->
<g id="node7" class="node">
<title>CommonModule </title>
<polygon fill="#fb8072" stroke="#000000" points="1047.6677,-252 932.3323,-252 932.3323,-216 1047.6677,-216 1047.6677,-252"/>
<text text-anchor="middle" x="990" y="-229.8" font-family="Times,serif" font-size="14.00" fill="#000000">CommonModule </text>
</g>
<!-- SharedModule&#45;&gt;CommonModule  -->
<g id="edge6" class="edge">
<title>SharedModule&#45;&gt;CommonModule </title>
<path fill="none" stroke="#000000" stroke-dasharray="5,2" d="M780.3337,-175C841.2665,-175 936.9648,-175 936.9648,-175 936.9648,-175 936.9648,-205.9775 936.9648,-205.9775"/>
<polygon fill="#000000" stroke="#000000" points="933.4648,-205.9774 936.9648,-215.9775 940.4648,-205.9775 933.4648,-205.9774"/>
</g>
<!-- BrowserModule  -->
<g id="node8" class="node">
<title>BrowserModule </title>
<polygon fill="#fb8072" stroke="#000000" points="914.4744,-252 803.5256,-252 803.5256,-216 914.4744,-216 914.4744,-252"/>
<text text-anchor="middle" x="859" y="-229.8" font-family="Times,serif" font-size="14.00" fill="#000000">BrowserModule </text>
</g>
<!-- SharedModule&#45;&gt;BrowserModule  -->
<g id="edge7" class="edge">
<title>SharedModule&#45;&gt;BrowserModule </title>
<path fill="none" stroke="#000000" stroke-dasharray="5,2" d="M780.2199,-181C796.3136,-181 810.139,-181 810.139,-181 810.139,-181 810.139,-205.7604 810.139,-205.7604"/>
<polygon fill="#000000" stroke="#000000" points="806.6391,-205.7604 810.139,-215.7604 813.6391,-205.7604 806.6391,-205.7604"/>
</g>
<!-- MaterialModule  -->
<g id="node9" class="node">
<title>MaterialModule </title>
<polygon fill="#fb8072" stroke="#000000" points="786.4716,-252 675.5284,-252 675.5284,-216 786.4716,-216 786.4716,-252"/>
<text text-anchor="middle" x="731" y="-229.8" font-family="Times,serif" font-size="14.00" fill="#000000">MaterialModule </text>
</g>
<!-- SharedModule&#45;&gt;MaterialModule  -->
<g id="edge8" class="edge">
<title>SharedModule&#45;&gt;MaterialModule </title>
<path fill="none" stroke="#000000" stroke-dasharray="5,2" d="M731,-187.1061C731,-187.1061 731,-205.991 731,-205.991"/>
<polygon fill="#000000" stroke="#000000" points="727.5001,-205.9909 731,-215.991 734.5001,-205.991 727.5001,-205.9909"/>
</g>
<!-- IgoModule  -->
<g id="node10" class="node">
<title>IgoModule </title>
<polygon fill="#fb8072" stroke="#000000" points="657.7109,-252 576.2891,-252 576.2891,-216 657.7109,-216 657.7109,-252"/>
<text text-anchor="middle" x="617" y="-229.8" font-family="Times,serif" font-size="14.00" fill="#000000">IgoModule </text>
</g>
<!-- SharedModule&#45;&gt;IgoModule  -->
<g id="edge9" class="edge">
<title>SharedModule&#45;&gt;IgoModule </title>
<path fill="none" stroke="#000000" stroke-dasharray="5,2" d="M681.3916,-181C665.5113,-181 651.96,-181 651.96,-181 651.96,-181 651.96,-205.7604 651.96,-205.7604"/>
<polygon fill="#000000" stroke="#000000" points="648.4601,-205.7604 651.96,-215.7604 655.4601,-205.7604 648.4601,-205.7604"/>
</g>
<!-- CauseModule  -->
<g id="node11" class="node">
<title>CauseModule </title>
<polygon fill="#fb8072" stroke="#000000" points="558.7605,-252 461.2395,-252 461.2395,-216 558.7605,-216 558.7605,-252"/>
<text text-anchor="middle" x="510" y="-229.8" font-family="Times,serif" font-size="14.00" fill="#000000">CauseModule </text>
</g>
<!-- SharedModule&#45;&gt;CauseModule  -->
<g id="edge10" class="edge">
<title>SharedModule&#45;&gt;CauseModule </title>
<path fill="none" stroke="#000000" stroke-dasharray="5,2" d="M681.6857,-175C621.395,-175 527.2826,-175 527.2826,-175 527.2826,-175 527.2826,-205.9775 527.2826,-205.9775"/>
<polygon fill="#000000" stroke="#000000" points="523.7827,-205.9774 527.2826,-215.9775 530.7827,-205.9775 523.7827,-205.9774"/>
</g>
<!-- provideConfigOptions.(args) -->
<g id="node12" class="node">
<title>provideConfigOptions.(args)</title>
<ellipse fill="#fdb462" stroke="#000000" cx="349" cy="-104" rx="122.7377" ry="18"/>
<text text-anchor="middle" x="349" y="-99.8" font-family="Times,serif" font-size="14.00" fill="#000000">provideConfigOptions.(args)</text>
</g>
<!-- provideConfigOptions.(args)&#45;&gt;SharedModule -->
<g id="edge11" class="edge">
<title>provideConfigOptions.(args)&#45;&gt;SharedModule</title>
<path fill="none" stroke="#000000" d="M466.6193,-109.4448C466.6193,-124.0508 466.6193,-163 466.6193,-163 466.6193,-163 671.5822,-163 671.5822,-163"/>
<polygon fill="#000000" stroke="#000000" points="671.5822,-166.5001 681.5822,-163 671.5821,-159.5001 671.5822,-166.5001"/>
</g>
<!-- provideConfig.(args) -->
<g id="node13" class="node">
<title>provideConfig.(args)</title>
<ellipse fill="#fdb462" stroke="#000000" cx="116" cy="-104" rx="92.0786" ry="18"/>
<text text-anchor="middle" x="116" y="-99.8" font-family="Times,serif" font-size="14.00" fill="#000000">provideConfig.(args)</text>
</g>
<!-- provideConfig.(args)&#45;&gt;SharedModule -->
<g id="edge12" class="edge">
<title>provideConfig.(args)&#45;&gt;SharedModule</title>
<path fill="none" stroke="#000000" d="M116,-122.1061C116,-141.3391 116,-169 116,-169 116,-169 671.7116,-169 671.7116,-169"/>
<polygon fill="#000000" stroke="#000000" points="671.7116,-172.5001 681.7116,-169 671.7115,-165.5001 671.7116,-172.5001"/>
</g>
</g>
</svg>
