<?xml version="1.0" encoding="UTF-8" standalone="no"?>
<!DOCTYPE svg PUBLIC "-//W3C//DTD SVG 1.1//EN"
 "http://www.w3.org/Graphics/SVG/1.1/DTD/svg11.dtd">
<!-- Generated by graphviz version 2.40.1 (20161225.0304)
 -->
<!-- Title: dependencies Pages: 1 -->
<svg width="883pt" height="284pt"
 viewBox="0.00 0.00 883.00 284.00" xmlns="http://www.w3.org/2000/svg" xmlns:xlink="http://www.w3.org/1999/xlink">
<g id="graph0" class="graph" transform="scale(1 1) rotate(0) translate(4 280)">
<title>dependencies</title>
<polygon fill="#ffffff" stroke="transparent" points="-4,4 -4,-280 879,-280 879,4 -4,4"/>
<text text-anchor="start" x="416.5091" y="-42.4" font-family="sans-serif" font-weight="bold" font-size="14.00" fill="#000000">Legend</text>
<polygon fill="#ffffb3" stroke="transparent" points="203.5,-10 203.5,-30 223.5,-30 223.5,-10 203.5,-10"/>
<text text-anchor="start" x="227.129" y="-15.4" font-family="sans-serif" font-size="14.00" fill="#000000"> &#160;Declarations</text>
<polygon fill="#8dd3c7" stroke="transparent" points="316.5,-10 316.5,-30 336.5,-30 336.5,-10 316.5,-10"/>
<text text-anchor="start" x="340.2251" y="-15.4" font-family="sans-serif" font-size="14.00" fill="#000000"> &#160;Module</text>
<polygon fill="#80b1d3" stroke="transparent" points="402.5,-10 402.5,-30 422.5,-30 422.5,-10 402.5,-10"/>
<text text-anchor="start" x="426.2812" y="-15.4" font-family="sans-serif" font-size="14.00" fill="#000000"> &#160;Bootstrap</text>
<polygon fill="#fdb462" stroke="transparent" points="499.5,-10 499.5,-30 519.5,-30 519.5,-10 499.5,-10"/>
<text text-anchor="start" x="523.1732" y="-15.4" font-family="sans-serif" font-size="14.00" fill="#000000"> &#160;Providers</text>
<polygon fill="#fb8072" stroke="transparent" points="595.5,-10 595.5,-30 615.5,-30 615.5,-10 595.5,-10"/>
<text text-anchor="start" x="619.2258" y="-15.4" font-family="sans-serif" font-size="14.00" fill="#000000"> &#160;Exports</text>
<g id="clust1" class="cluster">
<title>cluster_CauseCoreModule</title>
<polygon fill="none" stroke="#000000" stroke-dasharray="1,5" points="8,-70 8,-268 867,-268 867,-70 8,-70"/>
</g>
<g id="clust2" class="cluster">
<title>cluster_CauseCoreModule_declarations</title>
<polygon fill="none" stroke="#000000" points="677,-78 677,-130 859,-130 859,-78 677,-78"/>
</g>
<g id="clust4" class="cluster">
<title>cluster_CauseCoreModule_imports</title>
<polygon fill="none" stroke="#000000" points="521,-78 521,-130 669,-130 669,-78 521,-78"/>
</g>
<g id="clust5" class="cluster">
<title>cluster_CauseCoreModule_exports</title>
<polygon fill="none" stroke="#000000" points="345,-208 345,-260 531,-260 531,-208 345,-208"/>
</g>
<g id="clust7" class="cluster">
<title>cluster_CauseCoreModule_providers</title>
<polygon fill="none" stroke="#000000" points="16,-78 16,-130 513,-130 513,-78 16,-78"/>
</g>
<!-- RequestLoaderComponent -->
<g id="node1" class="node">
<title>RequestLoaderComponent</title>
<polygon fill="#ffffb3" stroke="#000000" points="851.0758,-122 684.9242,-122 684.9242,-86 851.0758,-86 851.0758,-122"/>
<text text-anchor="middle" x="768" y="-99.8" font-family="Times,serif" font-size="14.00" fill="#000000">RequestLoaderComponent</text>
</g>
<!-- CauseCoreModule -->
<g id="node2" class="node">
<title>CauseCoreModule</title>
<polygon fill="#8dd3c7" stroke="#000000" points="498.472,-187 495.472,-191 474.472,-191 471.472,-187 377.528,-187 377.528,-151 498.472,-151 498.472,-187"/>
<text text-anchor="middle" x="438" y="-164.8" font-family="Times,serif" font-size="14.00" fill="#000000">CauseCoreModule</text>
</g>
<!-- RequestLoaderComponent&#45;&gt;CauseCoreModule -->
<g id="edge1" class="edge">
<title>RequestLoaderComponent&#45;&gt;CauseCoreModule</title>
<path fill="none" stroke="#000000" d="M768,-122.2843C768,-143.3211 768,-175 768,-175 768,-175 508.5271,-175 508.5271,-175"/>
<polygon fill="#000000" stroke="#000000" points="508.5271,-171.5001 498.5271,-175 508.5271,-178.5001 508.5271,-171.5001"/>
</g>
<!-- RequestLoaderComponent  -->
<g id="node4" class="node">
<title>RequestLoaderComponent </title>
<polygon fill="#fb8072" stroke="#000000" points="522.5763,-252 353.4237,-252 353.4237,-216 522.5763,-216 522.5763,-252"/>
<text text-anchor="middle" x="438" y="-229.8" font-family="Times,serif" font-size="14.00" fill="#000000">RequestLoaderComponent </text>
</g>
<!-- CauseCoreModule&#45;&gt;RequestLoaderComponent  -->
<g id="edge3" class="edge">
<title>CauseCoreModule&#45;&gt;RequestLoaderComponent </title>
<path fill="none" stroke="#000000" stroke-dasharray="5,2" d="M438,-187.1061C438,-187.1061 438,-205.991 438,-205.991"/>
<polygon fill="#000000" stroke="#000000" points="434.5001,-205.9909 438,-215.991 441.5001,-205.991 434.5001,-205.9909"/>
</g>
<!-- CauseSharedModule -->
<g id="node3" class="node">
<title>CauseSharedModule</title>
<polygon fill="#8dd3c7" stroke="#000000" points="661.1331,-122 658.1331,-126 637.1331,-126 634.1331,-122 528.8669,-122 528.8669,-86 661.1331,-86 661.1331,-122"/>
<text text-anchor="middle" x="595" y="-99.8" font-family="Times,serif" font-size="14.00" fill="#000000">CauseSharedModule</text>
</g>
<!-- CauseSharedModule&#45;&gt;CauseCoreModule -->
<g id="edge2" class="edge">
<title>CauseSharedModule&#45;&gt;CauseCoreModule</title>
<path fill="none" stroke="#000000" d="M595,-122.0225C595,-139.3734 595,-163 595,-163 595,-163 508.7003,-163 508.7003,-163"/>
<polygon fill="#000000" stroke="#000000" points="508.7003,-159.5001 498.7003,-163 508.7003,-166.5001 508.7003,-159.5001"/>
</g>
<!-- ConfigService -->
<g id="node5" class="node">
<title>ConfigService</title>
<ellipse fill="#fdb462" stroke="#000000" cx="438" cy="-104" rx="66.6325" ry="18"/>
<text text-anchor="middle" x="438" y="-99.8" font-family="Times,serif" font-size="14.00" fill="#000000">ConfigService</text>
</g>
<!-- ConfigService&#45;&gt;CauseCoreModule -->
<g id="edge4" class="edge">
<title>ConfigService&#45;&gt;CauseCoreModule</title>
<path fill="none" stroke="#000000" d="M438,-122.1061C438,-122.1061 438,-140.991 438,-140.991"/>
<polygon fill="#000000" stroke="#000000" points="434.5001,-140.9909 438,-150.991 441.5001,-140.991 434.5001,-140.9909"/>
</g>
<!-- HttpService -->
<g id="node6" class="node">
<title>HttpService</title>
<ellipse fill="#fdb462" stroke="#000000" cx="296" cy="-104" rx="57.3185" ry="18"/>
<text text-anchor="middle" x="296" y="-99.8" font-family="Times,serif" font-size="14.00" fill="#000000">HttpService</text>
</g>
<!-- HttpService&#45;&gt;CauseCoreModule -->
<g id="edge5" class="edge">
<title>HttpService&#45;&gt;CauseCoreModule</title>
<path fill="none" stroke="#000000" d="M296,-122.0225C296,-139.3734 296,-163 296,-163 296,-163 367.3673,-163 367.3673,-163"/>
<polygon fill="#000000" stroke="#000000" points="367.3674,-166.5001 377.3673,-163 367.3673,-159.5001 367.3674,-166.5001"/>
</g>
<!-- RequestLoaderService -->
<g id="node7" class="node">
<title>RequestLoaderService</title>
<ellipse fill="#fdb462" stroke="#000000" cx="122" cy="-104" rx="98.3927" ry="18"/>
<text text-anchor="middle" x="122" y="-99.8" font-family="Times,serif" font-size="14.00" fill="#000000">RequestLoaderService</text>
</g>
<!-- RequestLoaderService&#45;&gt;CauseCoreModule -->
<g id="edge6" class="edge">
<title>RequestLoaderService&#45;&gt;CauseCoreModule</title>
<path fill="none" stroke="#000000" d="M122,-122.2843C122,-143.3211 122,-175 122,-175 122,-175 367.4459,-175 367.4459,-175"/>
<polygon fill="#000000" stroke="#000000" points="367.446,-178.5001 377.4459,-175 367.4459,-171.5001 367.446,-178.5001"/>
</g>
</g>
</svg>
