<?xml version="1.0" encoding="UTF-8" standalone="no"?>
<!DOCTYPE svg PUBLIC "-//W3C//DTD SVG 1.1//EN"
 "http://www.w3.org/Graphics/SVG/1.1/DTD/svg11.dtd">
<!-- Generated by graphviz version 2.40.1 (20161225.0304)
 -->
<!-- Title: dependencies Pages: 1 -->
<svg width="788pt" height="284pt"
 viewBox="0.00 0.00 788.00 284.00" xmlns="http://www.w3.org/2000/svg" xmlns:xlink="http://www.w3.org/1999/xlink">
<g id="graph0" class="graph" transform="scale(1 1) rotate(0) translate(4 280)">
<title>dependencies</title>
<polygon fill="#ffffff" stroke="transparent" points="-4,4 -4,-280 784,-280 784,4 -4,4"/>
<text text-anchor="start" x="369.0091" y="-42.4" font-family="sans-serif" font-weight="bold" font-size="14.00" fill="#000000">Legend</text>
<polygon fill="#ffffb3" stroke="transparent" points="156,-10 156,-30 176,-30 176,-10 156,-10"/>
<text text-anchor="start" x="179.629" y="-15.4" font-family="sans-serif" font-size="14.00" fill="#000000"> &#160;Declarations</text>
<polygon fill="#8dd3c7" stroke="transparent" points="269,-10 269,-30 289,-30 289,-10 269,-10"/>
<text text-anchor="start" x="292.7251" y="-15.4" font-family="sans-serif" font-size="14.00" fill="#000000"> &#160;Module</text>
<polygon fill="#80b1d3" stroke="transparent" points="355,-10 355,-30 375,-30 375,-10 355,-10"/>
<text text-anchor="start" x="378.7812" y="-15.4" font-family="sans-serif" font-size="14.00" fill="#000000"> &#160;Bootstrap</text>
<polygon fill="#fdb462" stroke="transparent" points="452,-10 452,-30 472,-30 472,-10 452,-10"/>
<text text-anchor="start" x="475.6732" y="-15.4" font-family="sans-serif" font-size="14.00" fill="#000000"> &#160;Providers</text>
<polygon fill="#fb8072" stroke="transparent" points="548,-10 548,-30 568,-30 568,-10 548,-10"/>
<text text-anchor="start" x="571.7258" y="-15.4" font-family="sans-serif" font-size="14.00" fill="#000000"> &#160;Exports</text>
<g id="clust1" class="cluster">
<title>cluster_CauseDialogModule</title>
<polygon fill="none" stroke="#000000" stroke-dasharray="1,5" points="8,-70 8,-268 772,-268 772,-70 8,-70"/>
</g>
<g id="clust2" class="cluster">
<title>cluster_CauseDialogModule_declarations</title>
<polygon fill="none" stroke="#000000" points="336,-78 336,-130 764,-130 764,-78 336,-78"/>
</g>
<g id="clust6" class="cluster">
<title>cluster_CauseDialogModule_imports</title>
<polygon fill="none" stroke="#000000" points="180,-78 180,-130 328,-130 328,-78 180,-78"/>
</g>
<g id="clust7" class="cluster">
<title>cluster_CauseDialogModule_exports</title>
<polygon fill="none" stroke="#000000" points="188,-208 188,-260 628,-260 628,-208 188,-208"/>
</g>
<g id="clust9" class="cluster">
<title>cluster_CauseDialogModule_providers</title>
<polygon fill="none" stroke="#000000" points="16,-78 16,-130 172,-130 172,-78 16,-78"/>
</g>
<!-- ConfirmComponent -->
<g id="node1" class="node">
<title>ConfirmComponent</title>
<polygon fill="#ffffb3" stroke="#000000" points="756.2716,-122 627.7284,-122 627.7284,-86 756.2716,-86 756.2716,-122"/>
<text text-anchor="middle" x="692" y="-99.8" font-family="Times,serif" font-size="14.00" fill="#000000">ConfirmComponent</text>
</g>
<!-- CauseDialogModule -->
<g id="node4" class="node">
<title>CauseDialogModule</title>
<polygon fill="#8dd3c7" stroke="#000000" points="463.8627,-187 460.8627,-191 439.8627,-191 436.8627,-187 332.1373,-187 332.1373,-151 463.8627,-151 463.8627,-187"/>
<text text-anchor="middle" x="398" y="-164.8" font-family="Times,serif" font-size="14.00" fill="#000000">CauseDialogModule</text>
</g>
<!-- ConfirmComponent&#45;&gt;CauseDialogModule -->
<g id="edge1" class="edge">
<title>ConfirmComponent&#45;&gt;CauseDialogModule</title>
<path fill="none" stroke="#000000" d="M692,-122.0225C692,-139.3734 692,-163 692,-163 692,-163 473.9793,-163 473.9793,-163"/>
<polygon fill="#000000" stroke="#000000" points="473.9794,-159.5001 463.9793,-163 473.9793,-166.5001 473.9794,-159.5001"/>
</g>
<!-- FullscreenComponent -->
<g id="node2" class="node">
<title>FullscreenComponent</title>
<polygon fill="#ffffb3" stroke="#000000" points="609.6456,-122 470.3544,-122 470.3544,-86 609.6456,-86 609.6456,-122"/>
<text text-anchor="middle" x="540" y="-99.8" font-family="Times,serif" font-size="14.00" fill="#000000">FullscreenComponent</text>
</g>
<!-- FullscreenComponent&#45;&gt;CauseDialogModule -->
<g id="edge2" class="edge">
<title>FullscreenComponent&#45;&gt;CauseDialogModule</title>
<path fill="none" stroke="#000000" d="M470.1858,-104C462.9051,-104 458.1014,-104 458.1014,-104 458.1014,-104 458.1014,-140.8939 458.1014,-140.8939"/>
<polygon fill="#000000" stroke="#000000" points="454.6014,-140.8938 458.1014,-150.8939 461.6014,-140.8939 454.6014,-140.8938"/>
</g>
<!-- WaitComponent -->
<g id="node3" class="node">
<title>WaitComponent</title>
<polygon fill="#ffffb3" stroke="#000000" points="452.0438,-122 343.9562,-122 343.9562,-86 452.0438,-86 452.0438,-122"/>
<text text-anchor="middle" x="398" y="-99.8" font-family="Times,serif" font-size="14.00" fill="#000000">WaitComponent</text>
</g>
<!-- WaitComponent&#45;&gt;CauseDialogModule -->
<g id="edge3" class="edge">
<title>WaitComponent&#45;&gt;CauseDialogModule</title>
<path fill="none" stroke="#000000" d="M398,-122.1061C398,-122.1061 398,-140.991 398,-140.991"/>
<polygon fill="#000000" stroke="#000000" points="394.5001,-140.9909 398,-150.991 401.5001,-140.991 394.5001,-140.9909"/>
</g>
<!-- ConfirmComponent  -->
<g id="node6" class="node">
<title>ConfirmComponent </title>
<polygon fill="#fb8072" stroke="#000000" points="620.2717,-252 487.7283,-252 487.7283,-216 620.2717,-216 620.2717,-252"/>
<text text-anchor="middle" x="554" y="-229.8" font-family="Times,serif" font-size="14.00" fill="#000000">ConfirmComponent </text>
</g>
<!-- CauseDialogModule&#45;&gt;ConfirmComponent  -->
<g id="edge5" class="edge">
<title>CauseDialogModule&#45;&gt;ConfirmComponent </title>
<path fill="none" stroke="#000000" stroke-dasharray="5,2" d="M464.1621,-175C504.6919,-175 548.8435,-175 548.8435,-175 548.8435,-175 548.8435,-205.9775 548.8435,-205.9775"/>
<polygon fill="#000000" stroke="#000000" points="545.3435,-205.9774 548.8435,-215.9775 552.3435,-205.9775 545.3435,-205.9774"/>
</g>
<!-- FullscreenComponent  -->
<g id="node7" class="node">
<title>FullscreenComponent </title>
<polygon fill="#fb8072" stroke="#000000" points="469.6453,-252 326.3547,-252 326.3547,-216 469.6453,-216 469.6453,-252"/>
<text text-anchor="middle" x="398" y="-229.8" font-family="Times,serif" font-size="14.00" fill="#000000">FullscreenComponent </text>
</g>
<!-- CauseDialogModule&#45;&gt;FullscreenComponent  -->
<g id="edge6" class="edge">
<title>CauseDialogModule&#45;&gt;FullscreenComponent </title>
<path fill="none" stroke="#000000" stroke-dasharray="5,2" d="M398,-187.1061C398,-187.1061 398,-205.991 398,-205.991"/>
<polygon fill="#000000" stroke="#000000" points="394.5001,-205.9909 398,-215.991 401.5001,-205.991 394.5001,-205.9909"/>
</g>
<!-- WaitComponent  -->
<g id="node8" class="node">
<title>WaitComponent </title>
<polygon fill="#fb8072" stroke="#000000" points="308.0428,-252 195.9572,-252 195.9572,-216 308.0428,-216 308.0428,-252"/>
<text text-anchor="middle" x="252" y="-229.8" font-family="Times,serif" font-size="14.00" fill="#000000">WaitComponent </text>
</g>
<!-- CauseDialogModule&#45;&gt;WaitComponent  -->
<g id="edge7" class="edge">
<title>CauseDialogModule&#45;&gt;WaitComponent </title>
<path fill="none" stroke="#000000" stroke-dasharray="5,2" d="M331.8348,-175C293.2051,-175 252,-175 252,-175 252,-175 252,-205.9775 252,-205.9775"/>
<polygon fill="#000000" stroke="#000000" points="248.5001,-205.9774 252,-215.9775 255.5001,-205.9775 248.5001,-205.9774"/>
</g>
<!-- CauseSharedModule -->
<g id="node5" class="node">
<title>CauseSharedModule</title>
<polygon fill="#8dd3c7" stroke="#000000" points="320.1331,-122 317.1331,-126 296.1331,-126 293.1331,-122 187.8669,-122 187.8669,-86 320.1331,-86 320.1331,-122"/>
<text text-anchor="middle" x="254" y="-99.8" font-family="Times,serif" font-size="14.00" fill="#000000">CauseSharedModule</text>
</g>
<!-- CauseSharedModule&#45;&gt;CauseDialogModule -->
<g id="edge4" class="edge">
<title>CauseSharedModule&#45;&gt;CauseDialogModule</title>
<path fill="none" stroke="#000000" d="M320.5148,-104C330.6976,-104 337.8987,-104 337.8987,-104 337.8987,-104 337.8987,-140.8939 337.8987,-140.8939"/>
<polygon fill="#000000" stroke="#000000" points="334.3987,-140.8938 337.8987,-150.8939 341.3987,-140.8939 334.3987,-140.8938"/>
</g>
<!-- DialogsService -->
<g id="node9" class="node">
<title>DialogsService</title>
<ellipse fill="#fdb462" stroke="#000000" cx="94" cy="-104" rx="70.0596" ry="18"/>
<text text-anchor="middle" x="94" y="-99.8" font-family="Times,serif" font-size="14.00" fill="#000000">DialogsService</text>
</g>
<!-- DialogsService&#45;&gt;CauseDialogModule -->
<g id="edge8" class="edge">
<title>DialogsService&#45;&gt;CauseDialogModule</title>
<path fill="none" stroke="#000000" d="M94,-122.0225C94,-139.3734 94,-163 94,-163 94,-163 322.0365,-163 322.0365,-163"/>
<polygon fill="#000000" stroke="#000000" points="322.0366,-166.5001 332.0365,-163 322.0365,-159.5001 322.0366,-166.5001"/>
</g>
</g>
</svg>
