<?xml version="1.0" encoding="UTF-8" standalone="no"?>
<!DOCTYPE svg PUBLIC "-//W3C//DTD SVG 1.1//EN"
 "http://www.w3.org/Graphics/SVG/1.1/DTD/svg11.dtd">
<!-- Generated by graphviz version 2.40.1 (20161225.0304)
 -->
<!-- Title: dependencies Pages: 1 -->
<svg width="957pt" height="284pt"
 viewBox="0.00 0.00 957.00 284.00" xmlns="http://www.w3.org/2000/svg" xmlns:xlink="http://www.w3.org/1999/xlink">
<g id="graph0" class="graph" transform="scale(1 1) rotate(0) translate(4 280)">
<title>dependencies</title>
<polygon fill="#ffffff" stroke="transparent" points="-4,4 -4,-280 953,-280 953,4 -4,4"/>
<text text-anchor="start" x="453.5091" y="-42.4" font-family="sans-serif" font-weight="bold" font-size="14.00" fill="#000000">Legend</text>
<polygon fill="#ffffb3" stroke="transparent" points="240.5,-10 240.5,-30 260.5,-30 260.5,-10 240.5,-10"/>
<text text-anchor="start" x="264.129" y="-15.4" font-family="sans-serif" font-size="14.00" fill="#000000"> &#160;Declarations</text>
<polygon fill="#8dd3c7" stroke="transparent" points="353.5,-10 353.5,-30 373.5,-30 373.5,-10 353.5,-10"/>
<text text-anchor="start" x="377.2251" y="-15.4" font-family="sans-serif" font-size="14.00" fill="#000000"> &#160;Module</text>
<polygon fill="#80b1d3" stroke="transparent" points="439.5,-10 439.5,-30 459.5,-30 459.5,-10 439.5,-10"/>
<text text-anchor="start" x="463.2812" y="-15.4" font-family="sans-serif" font-size="14.00" fill="#000000"> &#160;Bootstrap</text>
<polygon fill="#fdb462" stroke="transparent" points="536.5,-10 536.5,-30 556.5,-30 556.5,-10 536.5,-10"/>
<text text-anchor="start" x="560.1732" y="-15.4" font-family="sans-serif" font-size="14.00" fill="#000000"> &#160;Providers</text>
<polygon fill="#fb8072" stroke="transparent" points="632.5,-10 632.5,-30 652.5,-30 652.5,-10 632.5,-10"/>
<text text-anchor="start" x="656.2258" y="-15.4" font-family="sans-serif" font-size="14.00" fill="#000000"> &#160;Exports</text>
<g id="clust1" class="cluster">
<title>cluster_CauseFormModule</title>
<polygon fill="none" stroke="#000000" stroke-dasharray="1,5" points="8,-70 8,-268 941,-268 941,-70 8,-70"/>
</g>
<g id="clust2" class="cluster">
<title>cluster_CauseFormModule_declarations</title>
<polygon fill="none" stroke="#000000" points="464,-78 464,-130 933,-130 933,-78 464,-78"/>
</g>
<g id="clust6" class="cluster">
<title>cluster_CauseFormModule_imports</title>
<polygon fill="none" stroke="#000000" points="16,-78 16,-130 456,-130 456,-78 16,-78"/>
</g>
<g id="clust7" class="cluster">
<title>cluster_CauseFormModule_exports</title>
<polygon fill="none" stroke="#000000" points="294,-208 294,-260 620,-260 620,-208 294,-208"/>
</g>
<!-- MultilangComponent -->
<g id="node1" class="node">
<title>MultilangComponent</title>
<polygon fill="#ffffb3" stroke="#000000" points="925.0547,-122 788.9453,-122 788.9453,-86 925.0547,-86 925.0547,-122"/>
<text text-anchor="middle" x="857" y="-99.8" font-family="Times,serif" font-size="14.00" fill="#000000">MultilangComponent</text>
</g>
<!-- CauseFormModule -->
<g id="node4" class="node">
<title>CauseFormModule</title>
<polygon fill="#8dd3c7" stroke="#000000" points="522.094,-187 519.094,-191 498.094,-191 495.094,-187 397.906,-187 397.906,-151 522.094,-151 522.094,-187"/>
<text text-anchor="middle" x="460" y="-164.8" font-family="Times,serif" font-size="14.00" fill="#000000">CauseFormModule</text>
</g>
<!-- MultilangComponent&#45;&gt;CauseFormModule -->
<g id="edge1" class="edge">
<title>MultilangComponent&#45;&gt;CauseFormModule</title>
<path fill="none" stroke="#000000" d="M857,-122.2843C857,-143.3211 857,-175 857,-175 857,-175 532.468,-175 532.468,-175"/>
<polygon fill="#000000" stroke="#000000" points="532.468,-171.5001 522.468,-175 532.4679,-178.5001 532.468,-171.5001"/>
</g>
<!-- TakePictureComponent -->
<g id="node2" class="node">
<title>TakePictureComponent</title>
<polygon fill="#ffffb3" stroke="#000000" points="770.4678,-122 621.5322,-122 621.5322,-86 770.4678,-86 770.4678,-122"/>
<text text-anchor="middle" x="696" y="-99.8" font-family="Times,serif" font-size="14.00" fill="#000000">TakePictureComponent</text>
</g>
<!-- TakePictureComponent&#45;&gt;CauseFormModule -->
<g id="edge2" class="edge">
<title>TakePictureComponent&#45;&gt;CauseFormModule</title>
<path fill="none" stroke="#000000" d="M696,-122.0225C696,-139.3734 696,-163 696,-163 696,-163 532.3149,-163 532.3149,-163"/>
<polygon fill="#000000" stroke="#000000" points="532.315,-159.5001 522.3149,-163 532.3149,-166.5001 532.315,-159.5001"/>
</g>
<!-- WebcamComponent -->
<g id="node3" class="node">
<title>WebcamComponent</title>
<polygon fill="#ffffb3" stroke="#000000" points="603.5814,-122 472.4186,-122 472.4186,-86 603.5814,-86 603.5814,-122"/>
<text text-anchor="middle" x="538" y="-99.8" font-family="Times,serif" font-size="14.00" fill="#000000">WebcamComponent</text>
</g>
<!-- WebcamComponent&#45;&gt;CauseFormModule -->
<g id="edge3" class="edge">
<title>WebcamComponent&#45;&gt;CauseFormModule</title>
<path fill="none" stroke="#000000" d="M497.2532,-122.1061C497.2532,-122.1061 497.2532,-140.991 497.2532,-140.991"/>
<polygon fill="#000000" stroke="#000000" points="493.7532,-140.9909 497.2532,-150.991 500.7532,-140.991 493.7532,-140.9909"/>
</g>
<!-- MultilangComponent  -->
<g id="node8" class="node">
<title>MultilangComponent </title>
<polygon fill="#fb8072" stroke="#000000" points="612.054,-252 471.946,-252 471.946,-216 612.054,-216 612.054,-252"/>
<text text-anchor="middle" x="542" y="-229.8" font-family="Times,serif" font-size="14.00" fill="#000000">MultilangComponent </text>
</g>
<!-- CauseFormModule&#45;&gt;MultilangComponent  -->
<g id="edge7" class="edge">
<title>CauseFormModule&#45;&gt;MultilangComponent </title>
<path fill="none" stroke="#000000" stroke-dasharray="5,2" d="M497.01,-187.1061C497.01,-187.1061 497.01,-205.991 497.01,-205.991"/>
<polygon fill="#000000" stroke="#000000" points="493.5101,-205.9909 497.01,-215.991 500.5101,-205.991 493.5101,-205.9909"/>
</g>
<!-- TakePictureComponent  -->
<g id="node9" class="node">
<title>TakePictureComponent </title>
<polygon fill="#fb8072" stroke="#000000" points="454.4685,-252 301.5315,-252 301.5315,-216 454.4685,-216 454.4685,-252"/>
<text text-anchor="middle" x="378" y="-229.8" font-family="Times,serif" font-size="14.00" fill="#000000">TakePictureComponent </text>
</g>
<!-- CauseFormModule&#45;&gt;TakePictureComponent  -->
<g id="edge8" class="edge">
<title>CauseFormModule&#45;&gt;TakePictureComponent </title>
<path fill="none" stroke="#000000" stroke-dasharray="5,2" d="M426.0935,-187.1061C426.0935,-187.1061 426.0935,-205.991 426.0935,-205.991"/>
<polygon fill="#000000" stroke="#000000" points="422.5935,-205.9909 426.0935,-215.991 429.5935,-205.991 422.5935,-205.9909"/>
</g>
<!-- DxTabPanelModule -->
<g id="node5" class="node">
<title>DxTabPanelModule</title>
<polygon fill="#8dd3c7" stroke="#000000" points="447.5269,-122 444.5269,-126 423.5269,-126 420.5269,-122 318.4731,-122 318.4731,-86 447.5269,-86 447.5269,-122"/>
<text text-anchor="middle" x="383" y="-99.8" font-family="Times,serif" font-size="14.00" fill="#000000">DxTabPanelModule</text>
</g>
<!-- DxTabPanelModule&#45;&gt;CauseFormModule -->
<g id="edge4" class="edge">
<title>DxTabPanelModule&#45;&gt;CauseFormModule</title>
<path fill="none" stroke="#000000" d="M422.858,-122.1061C422.858,-122.1061 422.858,-140.991 422.858,-140.991"/>
<polygon fill="#000000" stroke="#000000" points="419.3581,-140.9909 422.858,-150.991 426.3581,-140.991 419.3581,-140.9909"/>
</g>
<!-- DxTextBoxModule -->
<g id="node6" class="node">
<title>DxTextBoxModule</title>
<polygon fill="#8dd3c7" stroke="#000000" points="299.6513,-122 296.6513,-126 275.6513,-126 272.6513,-122 174.3487,-122 174.3487,-86 299.6513,-86 299.6513,-122"/>
<text text-anchor="middle" x="237" y="-99.8" font-family="Times,serif" font-size="14.00" fill="#000000">DxTextBoxModule</text>
</g>
<!-- DxTextBoxModule&#45;&gt;CauseFormModule -->
<g id="edge5" class="edge">
<title>DxTextBoxModule&#45;&gt;CauseFormModule</title>
<path fill="none" stroke="#000000" d="M237,-122.0225C237,-139.3734 237,-163 237,-163 237,-163 387.8821,-163 387.8821,-163"/>
<polygon fill="#000000" stroke="#000000" points="387.8821,-166.5001 397.8821,-163 387.882,-159.5001 387.8821,-166.5001"/>
</g>
<!-- CauseSharedModule -->
<g id="node7" class="node">
<title>CauseSharedModule</title>
<polygon fill="#8dd3c7" stroke="#000000" points="156.1331,-122 153.1331,-126 132.1331,-126 129.1331,-122 23.8669,-122 23.8669,-86 156.1331,-86 156.1331,-122"/>
<text text-anchor="middle" x="90" y="-99.8" font-family="Times,serif" font-size="14.00" fill="#000000">CauseSharedModule</text>
</g>
<!-- CauseSharedModule&#45;&gt;CauseFormModule -->
<g id="edge6" class="edge">
<title>CauseSharedModule&#45;&gt;CauseFormModule</title>
<path fill="none" stroke="#000000" d="M90,-122.2843C90,-143.3211 90,-175 90,-175 90,-175 387.6529,-175 387.6529,-175"/>
<polygon fill="#000000" stroke="#000000" points="387.653,-178.5001 397.6529,-175 387.6529,-171.5001 387.653,-178.5001"/>
</g>
</g>
</svg>
