<?xml version="1.0" encoding="UTF-8" standalone="no"?>
<!DOCTYPE svg PUBLIC "-//W3C//DTD SVG 1.1//EN"
 "http://www.w3.org/Graphics/SVG/1.1/DTD/svg11.dtd">
<!-- Generated by graphviz version 2.40.1 (20161225.0304)
 -->
<!-- Title: dependencies Pages: 1 -->
<svg width="843pt" height="284pt"
 viewBox="0.00 0.00 843.00 284.00" xmlns="http://www.w3.org/2000/svg" xmlns:xlink="http://www.w3.org/1999/xlink">
<g id="graph0" class="graph" transform="scale(1 1) rotate(0) translate(4 280)">
<title>dependencies</title>
<polygon fill="#ffffff" stroke="transparent" points="-4,4 -4,-280 839,-280 839,4 -4,4"/>
<text text-anchor="start" x="396.5091" y="-42.4" font-family="sans-serif" font-weight="bold" font-size="14.00" fill="#000000">Legend</text>
<polygon fill="#ffffb3" stroke="transparent" points="183.5,-10 183.5,-30 203.5,-30 203.5,-10 183.5,-10"/>
<text text-anchor="start" x="207.129" y="-15.4" font-family="sans-serif" font-size="14.00" fill="#000000"> &#160;Declarations</text>
<polygon fill="#8dd3c7" stroke="transparent" points="296.5,-10 296.5,-30 316.5,-30 316.5,-10 296.5,-10"/>
<text text-anchor="start" x="320.2251" y="-15.4" font-family="sans-serif" font-size="14.00" fill="#000000"> &#160;Module</text>
<polygon fill="#80b1d3" stroke="transparent" points="382.5,-10 382.5,-30 402.5,-30 402.5,-10 382.5,-10"/>
<text text-anchor="start" x="406.2812" y="-15.4" font-family="sans-serif" font-size="14.00" fill="#000000"> &#160;Bootstrap</text>
<polygon fill="#fdb462" stroke="transparent" points="479.5,-10 479.5,-30 499.5,-30 499.5,-10 479.5,-10"/>
<text text-anchor="start" x="503.1732" y="-15.4" font-family="sans-serif" font-size="14.00" fill="#000000"> &#160;Providers</text>
<polygon fill="#fb8072" stroke="transparent" points="575.5,-10 575.5,-30 595.5,-30 595.5,-10 575.5,-10"/>
<text text-anchor="start" x="599.2258" y="-15.4" font-family="sans-serif" font-size="14.00" fill="#000000"> &#160;Exports</text>
<g id="clust1" class="cluster">
<title>cluster_AppModule</title>
<polygon fill="none" stroke="#000000" stroke-dasharray="1,5" points="8,-70 8,-268 827,-268 827,-70 8,-70"/>
</g>
<g id="clust2" class="cluster">
<title>cluster_AppModule_declarations</title>
<polygon fill="none" stroke="#000000" points="697,-78 697,-130 819,-130 819,-78 697,-78"/>
</g>
<g id="clust4" class="cluster">
<title>cluster_AppModule_imports</title>
<polygon fill="none" stroke="#000000" points="16,-78 16,-130 689,-130 689,-78 16,-78"/>
</g>
<g id="clust6" class="cluster">
<title>cluster_AppModule_bootstrap</title>
<polygon fill="none" stroke="#000000" points="322,-208 322,-260 446,-260 446,-208 322,-208"/>
</g>
<!-- AppComponent -->
<g id="node1" class="node">
<title>AppComponent</title>
<polygon fill="#ffffb3" stroke="#000000" points="810.9399,-122 705.0601,-122 705.0601,-86 810.9399,-86 810.9399,-122"/>
<text text-anchor="middle" x="758" y="-99.8" font-family="Times,serif" font-size="14.00" fill="#000000">AppComponent</text>
</g>
<!-- AppModule -->
<g id="node2" class="node">
<title>AppModule</title>
<polygon fill="#8dd3c7" stroke="#000000" points="425.6571,-187 422.6571,-191 401.6571,-191 398.6571,-187 342.3429,-187 342.3429,-151 425.6571,-151 425.6571,-187"/>
<text text-anchor="middle" x="384" y="-164.8" font-family="Times,serif" font-size="14.00" fill="#000000">AppModule</text>
</g>
<!-- AppComponent&#45;&gt;AppModule -->
<g id="edge1" class="edge">
<title>AppComponent&#45;&gt;AppModule</title>
<path fill="none" stroke="#000000" d="M758,-122.2843C758,-143.3211 758,-175 758,-175 758,-175 435.8139,-175 435.8139,-175"/>
<polygon fill="#000000" stroke="#000000" points="435.8139,-171.5001 425.8139,-175 435.8139,-178.5001 435.8139,-171.5001"/>
</g>
<!-- AppComponent  -->
<g id="node8" class="node">
<title>AppComponent </title>
<polygon fill="#80b1d3" stroke="#000000" points="438.439,-252 329.561,-252 329.561,-216 438.439,-216 438.439,-252"/>
<text text-anchor="middle" x="384" y="-229.8" font-family="Times,serif" font-size="14.00" fill="#000000">AppComponent </text>
</g>
<!-- AppModule&#45;&gt;AppComponent  -->
<g id="edge7" class="edge">
<title>AppModule&#45;&gt;AppComponent </title>
<path fill="none" stroke="#000000" stroke-dasharray="1,5" d="M384,-187.1061C384,-187.1061 384,-205.991 384,-205.991"/>
<polygon fill="#000000" stroke="#000000" points="380.5001,-205.9909 384,-215.991 387.5001,-205.991 380.5001,-205.9909"/>
</g>
<!-- RouterModule.forRoot(args) -->
<g id="node3" class="node">
<title>RouterModule.forRoot(args)</title>
<polygon fill="#8dd3c7" stroke="#000000" points="680.8419,-122 677.8419,-126 656.8419,-126 653.8419,-122 503.1581,-122 503.1581,-86 680.8419,-86 680.8419,-122"/>
<text text-anchor="middle" x="592" y="-99.8" font-family="Times,serif" font-size="14.00" fill="#000000">RouterModule.forRoot(args)</text>
</g>
<!-- RouterModule.forRoot(args)&#45;&gt;AppModule -->
<g id="edge2" class="edge">
<title>RouterModule.forRoot(args)&#45;&gt;AppModule</title>
<path fill="none" stroke="#000000" d="M592,-122.0225C592,-139.3734 592,-163 592,-163 592,-163 436.0919,-163 436.0919,-163"/>
<polygon fill="#000000" stroke="#000000" points="436.0919,-159.5001 426.0919,-163 436.0919,-166.5001 436.0919,-159.5001"/>
</g>
<!-- FormsModule -->
<g id="node4" class="node">
<title>FormsModule</title>
<polygon fill="#8dd3c7" stroke="#000000" points="485.8288,-122 482.8288,-126 461.8288,-126 458.8288,-122 390.1712,-122 390.1712,-86 485.8288,-86 485.8288,-122"/>
<text text-anchor="middle" x="438" y="-99.8" font-family="Times,serif" font-size="14.00" fill="#000000">FormsModule</text>
</g>
<!-- FormsModule&#45;&gt;AppModule -->
<g id="edge3" class="edge">
<title>FormsModule&#45;&gt;AppModule</title>
<path fill="none" stroke="#000000" d="M408.0821,-122.1061C408.0821,-122.1061 408.0821,-140.991 408.0821,-140.991"/>
<polygon fill="#000000" stroke="#000000" points="404.5821,-140.9909 408.0821,-150.991 411.5821,-140.991 404.5821,-140.9909"/>
</g>
<!-- HttpModule -->
<g id="node5" class="node">
<title>HttpModule</title>
<polygon fill="#8dd3c7" stroke="#000000" points="372.4387,-122 369.4387,-126 348.4387,-126 345.4387,-122 287.5613,-122 287.5613,-86 372.4387,-86 372.4387,-122"/>
<text text-anchor="middle" x="330" y="-99.8" font-family="Times,serif" font-size="14.00" fill="#000000">HttpModule</text>
</g>
<!-- HttpModule&#45;&gt;AppModule -->
<g id="edge4" class="edge">
<title>HttpModule&#45;&gt;AppModule</title>
<path fill="none" stroke="#000000" d="M357.1953,-122.1061C357.1953,-122.1061 357.1953,-140.991 357.1953,-140.991"/>
<polygon fill="#000000" stroke="#000000" points="353.6954,-140.9909 357.1953,-150.991 360.6954,-140.991 353.6954,-140.9909"/>
</g>
<!-- DxDataGridModule -->
<g id="node6" class="node">
<title>DxDataGridModule</title>
<polygon fill="#8dd3c7" stroke="#000000" points="269.2409,-122 266.2409,-126 245.2409,-126 242.2409,-122 140.7591,-122 140.7591,-86 269.2409,-86 269.2409,-122"/>
<text text-anchor="middle" x="205" y="-99.8" font-family="Times,serif" font-size="14.00" fill="#000000">DxDataGridModule</text>
</g>
<!-- DxDataGridModule&#45;&gt;AppModule -->
<g id="edge5" class="edge">
<title>DxDataGridModule&#45;&gt;AppModule</title>
<path fill="none" stroke="#000000" d="M205,-122.0225C205,-139.3734 205,-163 205,-163 205,-163 332.0325,-163 332.0325,-163"/>
<polygon fill="#000000" stroke="#000000" points="332.0325,-166.5001 342.0325,-163 332.0324,-159.5001 332.0325,-166.5001"/>
</g>
<!-- SharedModule -->
<g id="node7" class="node">
<title>SharedModule</title>
<polygon fill="#8dd3c7" stroke="#000000" points="122.4231,-122 119.4231,-126 98.4231,-126 95.4231,-122 23.5769,-122 23.5769,-86 122.4231,-86 122.4231,-122"/>
<text text-anchor="middle" x="73" y="-99.8" font-family="Times,serif" font-size="14.00" fill="#000000">SharedModule</text>
</g>
<!-- SharedModule&#45;&gt;AppModule -->
<g id="edge6" class="edge">
<title>SharedModule&#45;&gt;AppModule</title>
<path fill="none" stroke="#000000" d="M73,-122.2843C73,-143.3211 73,-175 73,-175 73,-175 332.0572,-175 332.0572,-175"/>
<polygon fill="#000000" stroke="#000000" points="332.0572,-178.5001 342.0572,-175 332.0571,-171.5001 332.0572,-178.5001"/>
</g>
</g>
</svg>
