<?xml version="1.0" encoding="UTF-8" standalone="no"?>
<!DOCTYPE svg PUBLIC "-//W3C//DTD SVG 1.1//EN"
 "http://www.w3.org/Graphics/SVG/1.1/DTD/svg11.dtd">
<!-- Generated by graphviz version 2.40.1 (20161225.0304)
 -->
<!-- Title: dependencies Pages: 1 -->
<svg width="788pt" height="284pt"
 viewBox="0.00 0.00 788.00 284.00" xmlns="http://www.w3.org/2000/svg" xmlns:xlink="http://www.w3.org/1999/xlink">
<g id="graph0" class="graph" transform="scale(1 1) rotate(0) translate(4 280)">
<title>dependencies</title>
<polygon fill="#ffffff" stroke="transparent" points="-4,4 -4,-280 784,-280 784,4 -4,4"/>
<text text-anchor="start" x="369.0091" y="-42.4" font-family="sans-serif" font-weight="bold" font-size="14.00" fill="#000000">Legend</text>
<polygon fill="#ffffb3" stroke="transparent" points="156,-10 156,-30 176,-30 176,-10 156,-10"/>
<text text-anchor="start" x="179.629" y="-15.4" font-family="sans-serif" font-size="14.00" fill="#000000"> &#160;Declarations</text>
<polygon fill="#8dd3c7" stroke="transparent" points="269,-10 269,-30 289,-30 289,-10 269,-10"/>
<text text-anchor="start" x="292.7251" y="-15.4" font-family="sans-serif" font-size="14.00" fill="#000000"> &#160;Module</text>
<polygon fill="#80b1d3" stroke="transparent" points="355,-10 355,-30 375,-30 375,-10 355,-10"/>
<text text-anchor="start" x="378.7812" y="-15.4" font-family="sans-serif" font-size="14.00" fill="#000000"> &#160;Bootstrap</text>
<polygon fill="#fdb462" stroke="transparent" points="452,-10 452,-30 472,-30 472,-10 452,-10"/>
<text text-anchor="start" x="475.6732" y="-15.4" font-family="sans-serif" font-size="14.00" fill="#000000"> &#160;Providers</text>
<polygon fill="#fb8072" stroke="transparent" points="548,-10 548,-30 568,-30 568,-10 548,-10"/>
<text text-anchor="start" x="571.7258" y="-15.4" font-family="sans-serif" font-size="14.00" fill="#000000"> &#160;Exports</text>
<g id="clust1" class="cluster">
<title>cluster_CauseModule</title>
<polygon fill="none" stroke="#000000" stroke-dasharray="1,5" points="8,-70 8,-268 772,-268 772,-70 8,-70"/>
</g>
<g id="clust3" class="cluster">
<title>cluster_CauseModule_imports</title>
<polygon fill="none" stroke="#000000" points="16,-78 16,-130 764,-130 764,-78 16,-78"/>
</g>
<g id="clust4" class="cluster">
<title>cluster_CauseModule_exports</title>
<polygon fill="none" stroke="#000000" points="195,-208 195,-260 634,-260 634,-208 195,-208"/>
</g>
<!-- CauseSharedModule -->
<g id="node1" class="node">
<title>CauseSharedModule</title>
<polygon fill="#8dd3c7" stroke="#000000" points="756.1331,-122 753.1331,-126 732.1331,-126 729.1331,-122 623.8669,-122 623.8669,-86 756.1331,-86 756.1331,-122"/>
<text text-anchor="middle" x="690" y="-99.8" font-family="Times,serif" font-size="14.00" fill="#000000">CauseSharedModule</text>
</g>
<!-- CauseModule -->
<g id="node5" class="node">
<title>CauseModule</title>
<polygon fill="#8dd3c7" stroke="#000000" points="462.7605,-187 459.7605,-191 438.7605,-191 435.7605,-187 369.2395,-187 369.2395,-151 462.7605,-151 462.7605,-187"/>
<text text-anchor="middle" x="416" y="-164.8" font-family="Times,serif" font-size="14.00" fill="#000000">CauseModule</text>
</g>
<!-- CauseSharedModule&#45;&gt;CauseModule -->
<g id="edge1" class="edge">
<title>CauseSharedModule&#45;&gt;CauseModule</title>
<path fill="none" stroke="#000000" d="M691.2761,-122.0225C691.2761,-139.3734 691.2761,-163 691.2761,-163 691.2761,-163 473.0089,-163 473.0089,-163"/>
<polygon fill="#000000" stroke="#000000" points="473.0089,-159.5001 463.0089,-163 473.0088,-166.5001 473.0089,-159.5001"/>
</g>
<!-- CauseCoreModule.forRoot() -->
<g id="node2" class="node">
<title>CauseCoreModule.forRoot()</title>
<polygon fill="#8dd3c7" stroke="#000000" points="605.8419,-122 602.8419,-126 581.8419,-126 578.8419,-122 428.1581,-122 428.1581,-86 605.8419,-86 605.8419,-122"/>
<text text-anchor="middle" x="517" y="-99.8" font-family="Times,serif" font-size="14.00" fill="#000000">CauseCoreModule.forRoot()</text>
</g>
<!-- CauseCoreModule.forRoot()&#45;&gt;CauseModule -->
<g id="edge2" class="edge">
<title>CauseCoreModule.forRoot()&#45;&gt;CauseModule</title>
<path fill="none" stroke="#000000" d="M445.6047,-122.1061C445.6047,-122.1061 445.6047,-140.991 445.6047,-140.991"/>
<polygon fill="#000000" stroke="#000000" points="442.1047,-140.9909 445.6047,-150.991 449.1047,-140.991 442.1047,-140.9909"/>
</g>
<!-- CauseDialogModule.forRoot() -->
<g id="node3" class="node">
<title>CauseDialogModule.forRoot()</title>
<polygon fill="#8dd3c7" stroke="#000000" points="410.2323,-122 407.2323,-126 386.2323,-126 383.2323,-122 221.7677,-122 221.7677,-86 410.2323,-86 410.2323,-122"/>
<text text-anchor="middle" x="316" y="-99.8" font-family="Times,serif" font-size="14.00" fill="#000000">CauseDialogModule.forRoot()</text>
</g>
<!-- CauseDialogModule.forRoot()&#45;&gt;CauseModule -->
<g id="edge3" class="edge">
<title>CauseDialogModule.forRoot()&#45;&gt;CauseModule</title>
<path fill="none" stroke="#000000" d="M389.618,-122.1061C389.618,-122.1061 389.618,-140.991 389.618,-140.991"/>
<polygon fill="#000000" stroke="#000000" points="386.1181,-140.9909 389.618,-150.991 393.1181,-140.991 386.1181,-140.9909"/>
</g>
<!-- CauseFormModule.forRoot() -->
<g id="node4" class="node">
<title>CauseFormModule.forRoot()</title>
<polygon fill="#8dd3c7" stroke="#000000" points="204.4642,-122 201.4642,-126 180.4642,-126 177.4642,-122 23.5358,-122 23.5358,-86 204.4642,-86 204.4642,-122"/>
<text text-anchor="middle" x="114" y="-99.8" font-family="Times,serif" font-size="14.00" fill="#000000">CauseFormModule.forRoot()</text>
</g>
<!-- CauseFormModule.forRoot()&#45;&gt;CauseModule -->
<g id="edge4" class="edge">
<title>CauseFormModule.forRoot()&#45;&gt;CauseModule</title>
<path fill="none" stroke="#000000" d="M113.4856,-122.0225C113.4856,-139.3734 113.4856,-163 113.4856,-163 113.4856,-163 359.064,-163 359.064,-163"/>
<polygon fill="#000000" stroke="#000000" points="359.0641,-166.5001 369.064,-163 359.064,-159.5001 359.0641,-166.5001"/>
</g>
<!-- CauseCoreModule  -->
<g id="node6" class="node">
<title>CauseCoreModule </title>
<polygon fill="#fb8072" stroke="#000000" points="626.4729,-252 501.5271,-252 501.5271,-216 626.4729,-216 626.4729,-252"/>
<text text-anchor="middle" x="564" y="-229.8" font-family="Times,serif" font-size="14.00" fill="#000000">CauseCoreModule </text>
</g>
<!-- CauseModule&#45;&gt;CauseCoreModule  -->
<g id="edge5" class="edge">
<title>CauseModule&#45;&gt;CauseCoreModule </title>
<path fill="none" stroke="#000000" stroke-dasharray="5,2" d="M463.0093,-175C502.905,-175 553.7174,-175 553.7174,-175 553.7174,-175 553.7174,-205.9775 553.7174,-205.9775"/>
<polygon fill="#000000" stroke="#000000" points="550.2175,-205.9774 553.7174,-215.9775 557.2175,-205.9775 550.2175,-205.9774"/>
</g>
<!-- CauseDialogModule  -->
<g id="node7" class="node">
<title>CauseDialogModule </title>
<polygon fill="#fb8072" stroke="#000000" points="483.8631,-252 348.1369,-252 348.1369,-216 483.8631,-216 483.8631,-252"/>
<text text-anchor="middle" x="416" y="-229.8" font-family="Times,serif" font-size="14.00" fill="#000000">CauseDialogModule </text>
</g>
<!-- CauseModule&#45;&gt;CauseDialogModule  -->
<g id="edge6" class="edge">
<title>CauseModule&#45;&gt;CauseDialogModule </title>
<path fill="none" stroke="#000000" stroke-dasharray="5,2" d="M416,-187.1061C416,-187.1061 416,-205.991 416,-205.991"/>
<polygon fill="#000000" stroke="#000000" points="412.5001,-205.9909 416,-215.991 419.5001,-205.991 412.5001,-205.9909"/>
</g>
<!-- CauseFormModule  -->
<g id="node8" class="node">
<title>CauseFormModule </title>
<polygon fill="#fb8072" stroke="#000000" points="330.5946,-252 203.4054,-252 203.4054,-216 330.5946,-216 330.5946,-252"/>
<text text-anchor="middle" x="267" y="-229.8" font-family="Times,serif" font-size="14.00" fill="#000000">CauseFormModule </text>
</g>
<!-- CauseModule&#45;&gt;CauseFormModule  -->
<g id="edge7" class="edge">
<title>CauseModule&#45;&gt;CauseFormModule </title>
<path fill="none" stroke="#000000" stroke-dasharray="5,2" d="M369.1069,-175C328.5343,-175 276.3405,-175 276.3405,-175 276.3405,-175 276.3405,-205.9775 276.3405,-205.9775"/>
<polygon fill="#000000" stroke="#000000" points="272.8405,-205.9774 276.3405,-215.9775 279.8405,-205.9775 272.8405,-205.9774"/>
</g>
</g>
</svg>
